<svg version="1.1" id="Layer_1" xmlns="http://www.w3.org/2000/svg" xmlns:xlink="http://www.w3.org/1999/xlink" x="0px" y="0px"
	 viewBox="0 0 500 500" style="enable-background:new 0 0 500 500;" xml:space="preserve">

<g style="fill: none; stroke: #000000; stroke-width: 2px;">
	<g>
		<path class="st0" d="M149,301.7c-1.8,0-3.6,0.5-5.1,1.2l-0.5,0.2c-1.5,0.6-1.9,0.9-1.9,2.2v0.7c0.1,4.3,0.4,7.1,0.5,11.3v0.9
			c0,1.6,0.1,1.3,2.4,1.5h0.5c3.4,0,6.7-1,8.6-4c1.2-2,2-4,2-6.1c0-1.7-0.5-3.4-1.6-5.1C152.9,302.6,151,301.7,149,301.7z"/>
		<path class="st0" d="M193.9,268.3c-1.1,2.4-3.1,8.9-3.8,11c-1.8,5.9-3.8,11.7-5,17.7c-0.1,0.5-0.1,0.7-0.1,1c0,0.7,0.5,0.9,1.9,1
			c1.6,0.2,3.5,0.2,5.3,0.2c1.8,0,3.2,0,4.4-0.1c0.1,0,1.6-0.1,1.6-0.6c0-0.2-0.1-1.2-0.3-1.7C196.1,287.1,194.8,278.5,193.9,268.3z
			"/>
		<path class="st0" d="M142.2,297.1c0.3,0,0.7-0.2,1.2-0.6c3-2.1,5.5-4.4,7.3-7.5c2.6-4.6,4.3-9.7,4.3-14.4c0-2.1-0.3-4-1.1-6
			c-1.1-3.1-3.5-4.5-6.3-4.5c-0.8,0-1.8,0.1-2.7,0.4c-2.7,0.7-3,1.1-3,3.8c-0.1,3.5-0.5,25.4-0.5,27.1
			C141.6,296.5,141.7,297.1,142.2,297.1z"/>
		<path class="st0" d="M463.5,275.2c-1.3-3.1-3.2-5-5.2-5H417c-2,7.1-21.4,3.3-24.3,2.6c-3.1-0.7-6.1-2-8.8-3.8v-2.2
			c0-13-6.1-23.6-13.6-23.6H129.6c-7.5,0-13.6,10.6-13.6,23.6v2.2c-2.6,1.8-5.6,3-8.8,3.8c-2.8,0.7-22.2,4.6-24.3-2.6H41.7
			c-2,0-3.9,1.9-5.2,5c-1.3,3-2.2,7.4-2.2,12.1v8.9c0,4.7,0.8,9,2.2,12.2c1.3,3.1,3.2,5,5.2,5H83c2.3-7,19.9-5.3,23.4-4.4
			c3.5,0.9,6.8,2.4,9.7,4.6v3.4c0,13,6.1,23.6,13.6,23.6h240.8c7.5,0,13.6-10.6,13.6-23.6v-3.4c2.9-2.2,6.2-3.8,9.7-4.6
			c3.5-0.9,21.1-2.6,23.4,4.4h41.2c2,0,3.9-1.9,5.2-5c1.3-3.1,2.2-7.4,2.2-12.2v-8.9C465.7,282.6,464.8,278.3,463.5,275.2z
			 M159.1,317.3c-2.3,3.2-6.1,5.6-10.1,6.2c-1.1,0.2-2,0.2-2.8,0.2c-0.9,0-1.8,0-2.7-0.2c-1.2,0-1.5,0.5-2,1
			c-0.7,0.6-1.2,0.7-1.9,0.7c-0.7,0-1.3-0.1-2-0.5c-1.2-0.5-1.6-1.3-1.6-2.6c-0.1-6.8-0.5-14.3-0.5-21.4v-2.6
			c0.1-3.9,0.1-7.6,0.1-11.3c0-7.2-0.1-14.1-0.1-21.3c0-1-0.4-2.2-0.4-3.3c0-1.2,0.5-2.1,2.4-2.3c2.4-0.2,5.1-0.6,7.8-0.6
			c2.6,0,5.1,0.4,7.5,1.3c4.6,2.2,7.5,6.4,8.2,11c0.1,1.1,0.3,2.2,0.3,3.3c0,4.5-1.3,8.8-3.4,13c-1.8,3.4-3.9,6.6-6.6,9.4
			c1.9,0.4,1.9,0.5,2.4,0.6c4.6,1.5,7.7,6.7,7.7,12C161.4,312.7,160.6,315.1,159.1,317.3z M206.3,324.2h-0.5c-1.2,0-2.2-0.7-2.6-2.3
			c-1.2-5.7-2.3-10.9-3.2-16.1c-0.1-1-0.7-1.3-1.8-1.3c-4,0-7.8-0.2-11-0.2c-1.1,0-1.9-0.1-2.4-0.1c-1.5,0-1.6,0.4-2,2.3
			c-1.2,5.6-2.4,11.4-3.5,17.1c-0.3,1.7-1.2,2.4-2.7,2.4c-0.4,0-0.8,0-1.2-0.1c-1.2-0.4-1.9-1-1.9-2.3v-0.7
			c0.5-4.3,1.5-8.6,2.6-12.8c0-0.2,0.1-0.4,0.1-0.6l0.7-3.3c2.3-10.1,4.7-20.3,8.1-30.2c1.3-4.2,2.3-8.3,3.4-12.6l0.4-1.8
			c0.1-2.4,0.5-2.9,3-3.5c0.8-0.1,1.6-0.1,2.3-0.1c0.7,0,1.3,0,2.2,0.1c1.6,0.2,3.1,1.3,3.2,2.9c0.3,3.2,0.5,6.4,0.7,9.5
			c0.1,4.3,0.8,8.4,1.5,12.6c0.8,5.6,1.6,11.3,2.8,16.8l4.7,21.2c0.1,0.7,0.1,0.9,0.1,1.1C209.2,323.3,208.2,324.2,206.3,324.2z
			 M258.2,266.3c-2.6,9.7-16,27-23.2,33.9c-0.5,0.5-0.7,0.9-0.7,1.2c0,0.6,0.5,0.9,1.3,1.7c5.9,5.9,11.4,10.4,16.7,15.7
			c0.8,1,1.2,1.7,1.2,2.3c0,0.5-0.3,1-0.7,1.3c-0.4,0.5-1.5,0.9-2.2,0.9c-1.2,0-2-0.7-2.7-1.2c-5.7-4.6-10.2-8.6-16.3-13.9
			c0,6.1-0.1,8.9-0.1,13c0,1.8-1.1,2.3-3.1,2.3c-2.7,0-3.5-0.6-3.6-3.3c-0.5-10.4-0.9-20.2-0.9-30.2c0-3.7,0.1-7.1,0.1-10.6
			c0-6.4,0-11.3,0.4-18.5c0.1-1.5,0.8-2.4,2.2-2.4c0.3,0,1.1,0.1,1.3,0.2c2.8,0.7,3.5,1.2,3.5,4v0.5c-0.3,12.1-0.3,23-0.3,32.2
			c8.5-7.7,16-20.2,21-29.8c0.4-1,1.6-2.7,2.8-2.7c1.3,0,3.2,1.3,3.2,2.4C258.3,265.6,258.3,266,258.2,266.3z M277.7,267.8
			c-0.5,14.1-0.9,27.3-0.9,40.2c0,4,0,8.1,0.1,12.1c0,1.5-0.5,2-1.9,2.3c-0.4,0.1-0.7,0.1-1.1,0.1c-2,0-3.4-1.2-3.4-3.4
			c-0.1-7.6-0.1-14.7-0.1-21.5c0-9.2,0.3-17.9,0.3-27.4v-6.4c0.1-2.1,1.2-3.3,3.2-3.3c2.8,0,3.9,1.6,3.9,4.2
			C277.8,265.7,277.7,266.8,277.7,267.8z M326.2,319.8v0.9c0,0.7-0.1,1.5-1.1,1.7c-0.4,0.1-0.9,0.1-1.3,0.1c-2.7,0-4.6-1.6-5.3-4
			c-1.8-4.8-4-9.4-6.1-14.1c-3.1-7.1-5.8-14.3-8.5-21.6l-3.1-8.6c-0.4,14.3-0.5,24.8-0.5,36.8c0,2.4,0,7.1-0.4,9.7
			c-0.1,1.2-0.9,2.1-2.2,2.1c-1.6,0-2.8-0.4-3.4-1.7c-0.4-0.7-0.4-1.6-0.4-2.3c0-16.6,0.1-33.1,0.4-51c0-1.6,0.1-3.3,0.1-5
			c0-2.1,0.7-2.9,2.6-2.9c0.9,0,1.2,0.1,1.3,0.1c2.6,0.4,4.7,0.7,5.3,3.1c3.1,10,6.2,18,9.6,27.1c1.9,5.1,5.9,14.8,7.3,17.7
			c0-7.3-0.3-15.9-0.3-23.5v-3.7c0-3.5,0.3-12,0.3-15v-1.1c0-2,1.2-3.2,3.1-3.3c1.9,0,3.1,0.6,3.1,3.1
			C326.2,282.9,326.2,301.3,326.2,319.8z M370.6,314.1c-1.5,4-4.6,7.9-9,9.3c-1.5,0.4-2.8,0.6-4.2,0.6c-4.8,0-9-2.4-11.6-6.4
			c-4.2-6.4-5.7-14.1-5.7-21.6c0-7.8,0.7-15.9,3-23.4c2.2-6.6,7.4-14.3,14.9-14.3c4,0,7.7,2.6,7.7,6.4c0,2.1-0.7,3.8-2.8,3.8
			c-2.2,0-3.6-0.5-3.9-3.8c0-0.7-0.4-1.3-1.2-1.3c-0.4,0-0.7,0-1.1,0.1c-2.7,1-4.3,3.3-5.5,5.7c-3.6,6.7-4.6,15.9-4.6,24.1v3.3
			c0.1,5.9,1.1,11.5,3.5,16.8c1.5,3.2,4.6,5.3,7.7,5.3c2.2,0,4.2-1,5.7-3.2c3.5-5.6,3.5-11.3,3.5-17v-0.6c0-0.9-0.3-1.2-0.9-1.2
			c-0.1,0-0.4,0.1-0.7,0.1c-1.6,0.1-3.5,0.4-5.1,0.4c-1.2,0-2-0.2-2.2-1.3c0-1.6,0-3.3,2.6-3.5c2-0.2,4.7-0.2,6.7-0.6
			c0.4,0,0.8-0.1,1.2-0.1c2.8,0,4.6,1.2,4.6,4.4C373.2,304.6,372.9,307.7,370.6,314.1z"/>
	</g>
	<path d="M390.5,389.9c-4.8,4.6-20.4,1.4-23.8-7.6c-0.5-1.6-0.7-3-1.1-4.4c-0.5-1.1-0.7-2.3-1.8-3c-0.9-0.5-2.5-1.1-2.7,0.7
		c-0.5,6.9-0.7,13.5-0.9,20.1c-0.2,5.7-0.5,11.2-1.1,16.9c-0.7,7.8-3,14.9-5.5,22.2c-0.7,1.6-1.4,3.4-3.2,4.1
		c-0.2,0-0.7-0.2-0.7-0.5c-0.7-0.9-1.1-1.6-1.6-2.5c-3.4-6.4-5.3-13.3-6.2-20.4c-0.7-5.3-0.9-10.3-0.7-15.3c0-1.4-0.2-2.7-0.2-4.1
		c-0.7-0.7-1.1-1.6-1.8-2.3c-2.1-1.8-4.6-2.1-6.9-0.7c-2.1,1.1-3,3.2-3.4,5.3c-0.2,3.4-0.9,6.9-0.9,10.5c0.2,1.6,0,3.2-0.5,4.8
		c-1.6,6-3.4,11.9-5.5,17.6c-1.4,4.4-3.7,8.5-6.9,11.9c-1.4,1.4-2.5,0-2.5-1.1c0.2-4.1,0.2-7.6,0.5-11.2c0-11.4-0.5-22.9,0.9-34.3
		c0.7-6.6,0.9-13.3,1.6-19.9c0-2.3-0.2-4.6-0.7-6.9c-0.9-3-3.4-4.6-6.4-4.6c-5.9,0.5-7.6,15.1-8.1,25.5c-0.1,0.1-0.1,0.2-0.2,0.4
		c-6.4,18.5-31.6,46.7-42.6,29.3c-3-5.5-0.2-17.6,2.5-25c5.7-2.7,10.3-6.4,14.4-10.5c2.1-2.3,3.4-4.8,4.8-7.6
		c1.1-2.7,1.4-5.5,0.7-8.2c-0.7-3.7-3.4-7.3-8.9-6.9c-3.2,0.5-5.7,1.8-8,3.9c-4.1,3.4-7.6,7.3-10.3,12.1c-3.4,6-5.6,11.8-6.9,17.5
		c-4.8,11.8-11.5,27.7-17,37.9c-1.8,3.4-3.9,6.6-6,9.8c-1.1,2.1-2.7,3.9-4.8,4.8c-1.4-0.7-1.6-1.8-1.8-3c-2.3-7.3-1.8-14.9-0.7-22.2
		c0.7-5.5,2.1-11,3.2-16.5c0.5-2.3,0.9-4.6,1.1-6.9c0-6.2-3.4-9.8-9.4-10.1c-3.4,0-6.6-0.9-9.8-1.4l-6.2-1.6
		c-0.5-0.2-0.9-0.5-1.1-1.1c0-1.1,0.2-2.5,0.5-3.9c0.7-4.8,0.2-9.8-0.9-14.7c-0.7-3-2.3-5.3-4.6-7.1c-2.5-2.1-5.5-2.1-8.2-0.2
		c-1.6,1.1-2.7,2.3-3.7,3.9c-3.9,6.9-2.3,16.5,1.4,20.8c2.4,2.9,5.1,5.1,8.5,6.7c-2.1,3.5-2.3,4.2-5.1,8.8
		c-4.6,7.1-9.2,14.7-14.4,21.5c-3.2,4.1-6.6,7.6-10.8,11c-2.5,1.8-5.3,3.4-8.7,3.9c-3.4-0.5-6-1.8-7.3-4.8c-0.9-1.4-1.4-3-1.8-4.6
		c-0.5-1.6-0.7-3.2-1.1-4.8c-0.7-3.7-1.4-7.6-0.9-11.4c0.7-5,1.1-10.1,2.7-15.1c0.9-3.2,1.8-6.4,3-9.4c0.7-2.7,1.8-5.5,3.7-7.6
		c0.7-0.7,1.6-1.4,2.3-1.8c2.5,1.8,2.7,1.8,3.7,3.4c1.8,3.7,3,7.8,3.4,11.9c0.2,0.9,0.2,2.1,0.5,3c0.2,0.7,0.7,1.4,2.1,1.1
		c0.2-0.7,0.7-1.6,0.7-2.5c0.2-6-1.4-11.7-3.7-16.9c-0.7-1.6-1.8-3-3-3.9c-2.3-2.1-4.8-2.7-7.8-1.6c-2.7,1.1-5.3,2.5-7.3,4.4
		c-4.1,3.9-7.3,8.7-9.4,14c-3.2,9.2-4.6,18.8-3.9,28.4c0.7,8.9,5,16.3,12.8,20.8c7.1,4.4,15.1,4.4,21.8-1.4
		c9.4-8,24.3-27.9,28.8-37.5c1.2-2.4,2.4-4.8,3.8-7.2c4.6,1.6,10.2,2.7,17.5,3.8c-0.2,1.1-1.1,4.1-1.1,4.6c-2.3,8.9-4.8,18.1-5,27.5
		c-1.4,5,0,10.3,0.5,15.3c0.7,5,3.4,8.9,7.8,11.4c3.9,2.3,8.9,2.5,12.4-1.4c1.4-1.4,2.7-3,3.9-4.6c2.1-3.7,4.4-7.6,6-11.4
		c-2.7,6.7,5.9-12.9,12.8-29.9c0.2,4,1,8,2.3,12c13.8,25.3,41.4,2.4,52.9-18.1c-0.2,10.2-0.2,20.4-0.4,30.6c0,8.5,5,17.4,13.5,18.3
		c3.4,0,5.5-2.1,7.3-4.6c2.7-3.7,4.8-7.6,6.4-11.7l2.1-6.2c0.2-0.7,0.5-1.4,1.4-0.9c0.5,1.4,1.1,3,1.6,4.6c0.9,3.2,2.5,6.2,4.8,8.7
		c2.3,2.7,5,5,8.5,6.4c2.7,1.1,5.5,0.9,7.6-0.9c1.4-0.9,2.5-2.3,3.2-3.7c1.1-1.6,1.8-3.2,2.5-5c2.1-6.4,3.4-13.1,4.1-19.9
		c0.7-6,0.9-12.1,1.1-18.3c0.2-3,0-5.7,0.2-8.5c0-0.7,0.2-3.2-0.2-6c2.5,6.2,21.3,17.2,29.5,6.4
		C395.1,389.4,392.5,388.3,390.5,389.9z M262.3,388.7c2.1-4.4,3.9-8.9,6.2-13.1c1.1-2.7,2.7-5.3,5.7-6.9c1.6,0,2.3,0.9,2.7,2.1
		c0.5,2.1,0.5,4.1-0.5,6c-0.7,1.4-1.4,2.5-2.3,3.7c-3.2,4.1-7.3,7.1-11.9,10.1V388.7z M181,365.6c0.7-1.1,1.6-2.3,3.4-2.1
		c3,1.8,4.4,5,4.8,8.7c0.2,3.7,0.2,7.6-0.2,11.2c0,0.2-0.5,0.7-0.5,0.9l-0.9,0.2l-2.7-1.4C179.2,379.6,178,369.9,181,365.6z"/>
	<path class="st1" d="M411,444.8c6.7-12.4,22.9-40.4,22.9-40.4c2.5-4.6,9.6-18.6,9.9-19.2c5.9-12.5,15.2-25.9,12-40.5
		c-1.2-5.8-5.5-9.7-9.9-13.1c-2.4-1.9-6.3-2.2-9.3-3.1c-3.9-1.1-7.8-1.7-11.8-1.3c-7.5,0.7-13.1,4.6-18.7,9.2
		c-3.9,3.3-10.9,9.2-9.2,15.2c1.5,5,7.3,10.2,12.9,6.9c2.8-1.7,5-4.6,7.5-6.8c0.9-0.8,2.3-1.9,3.8-2.9c0.5,0.3,1,0.4,1.7,0
		c2-0.9,4.1-2.1,6.3-2.1c0,0,0,0,0.1,0c0.4,0.2,0.9,0.2,1.2,0.1c0.3,0.1,0.6,0.1,1,0.3c3.3,1.5,3.1,5.7,2.5,8.6
		c-0.4,2.2-1.8,4.2-2.6,6.3c-0.8,2.5-1.8,5.3-3,7.7c-1.1,2.1-2.6,3.9-3.9,5.9c-1.1,1.8-1.5,3.9-2.6,5.7c-0.9,1.4-19,37.3-19.8,39.7
		c-0.9,2.8-2.9,5.4-4.3,8c-1.4,2.6-2.7,5.1-4.1,7.7c-2.4,4.5-4.4,9.8-7.5,13.8c-1.5,1.9-1.7,4.9,0.7,6.2c2.8,1.7,6,3.7,9.1,4.7
		c2.8,0.9,5.9-0.7,7.5-3C406.5,454.2,408.6,449.3,411,444.8z M411.5,336.8c0.4-0.2,0.7-0.5,1-0.7c4.2-3.3,9.3-5.1,14.6-5.3
		c0.5-0.1,0.9,0,1.3,0c-1.3,3.6-1.3,8-1.5,12c-1.7,0-3.5,0.6-5.3,1.4c-1.4-1.3-3.1-2.1-4.6-3.3C415.2,339.3,413.5,338,411.5,336.8z
		 M402.5,354.1c-2.3-2-2.2-5-1-7.4c0.5-1.1,1.3-2.1,2.2-3.1c0.1,0.1,0.2,0.2,0.2,0.3c1.7,1.2,3.5,2.1,5.4,2.9c1.2,0.7,2.5,1.4,3.9,2
		c0.3,0.2,0.6,0.4,0.9,0.6c-1.4,1.2-2.5,2.5-3.6,3.6C408.3,355.3,405.3,356.6,402.5,354.1z M435.1,345.1L435.1,345.1
		c-0.2-1.5,2-4.4,2.5-5.8c0.9-2.1,1.8-4.2,2.7-6.3c1.1,0.3,2.2,0.6,3,1.2c0.8,0.5,1,1.4,1.7,1.8c1,0.6,2.1,1.2,2.9,2
		c0.9,1,1.7,2,2.3,3.2c-0.5,0.5-1,1-1.5,1.4c-1.6,1.2-3.2,2.5-4.9,3.6c-2,1.2-4.3,2.3-6.1,3.7C437.3,348.1,436.5,346.4,435.1,345.1z
		 M430.4,373.4c0.4-0.6,0.7-1.1,1.1-1.7c1.3-2.2,1.8-4.8,2.9-7c0-0.1,0.1-0.2,0.1-0.3c3-1,6.1-3,8.9-4.4c2.7-1.3,6.3-2.6,8.7-4.6
		c0,0.5-0.2,1-0.2,1.4c-0.8,4.8-3.1,9.5-5.3,13.8C441.3,371.3,435.7,371.9,430.4,373.4z M428.1,393.9c-0.6,0.1-1.3,0.3-2,0.4
		c-2.6,0.2-5.1,0.5-7.6,0.7c1.5-3.2,3.2-6.3,4.9-9.1c0.3-0.4,0.5-0.9,0.8-1.3c2.8,0.2,5.9-0.8,8.5-1.3c2.8-0.5,5.7-0.8,8.5-1.5
		c-0.5,1.2-1.2,2.5-1.7,3.7c-1.2,2.5-2.5,5.1-3.7,7.6C433.2,393.5,430.7,393.3,428.1,393.9z M409.3,415.5c0.4-1,1-2.2,1.4-3.5
		c0.7-2.3,2.2-4.2,3.4-6.3c2.3,0.4,5-0.5,7.1-0.8c2.9-0.4,5.7-0.4,8.5-0.9c-1.9,3.3-3.7,6.4-5.6,9.6c-0.1,0.3-0.3,0.5-0.4,0.8
		c-0.4,0-0.7-0.1-1,0c-1.7,0.6-4.3,0.4-6.1,0.4C414.3,415,411.8,415.2,409.3,415.5z M401.2,435.4c-0.8-0.1-1.6-0.1-2.5-0.1
		c1.5-2.7,2.8-5.4,4.4-8.2c0.4-0.8,0.7-1.5,1.2-2.2c0.5-0.1,1.1-0.2,1.6-0.2c1.9,0.1,3.8,0.1,5.6,0c2.2,0.1,4.5,0.2,6.6-0.4
		c-2.1,3.7-4.2,7.5-6.3,11.2c-2.2-0.4-4.7,0-6.8-0.1C403.9,435.4,402.6,435.4,401.2,435.4z M396.4,453.7c-0.8-0.1-1.6-0.1-2.5-0.2
		c-1.3-0.2-3.2-0.7-4.7-0.7c0-0.2,0.1-0.3,0.2-0.4c1.4-2.1,2.5-4.3,3.6-6.5c0.2-0.3,0.3-0.7,0.5-1.1c2,0.4,4.1-0.1,6.3,0
		c2.3,0.1,4.7,0,7.1,0.1c-0.1,0.3-0.2,0.4-0.4,0.7c-1.3,2.3-2.4,4.6-3.8,7c-0.3,0.6-0.6,1.2-0.9,1.8
		C400.1,453.7,398.1,453.8,396.4,453.7z"/>
	<path class="st1" d="M104.5,340.1c0-0.1-0.1-0.3-0.1-0.4c-0.2-0.4-0.4-1.2-0.7-1.7c-0.8-1.2-1.4-1.7-2.5-2.5
		c-0.5-0.3-1.2-0.6-1.6-0.7c-0.1,0-0.1,0-0.2-0.1c0,0-0.1,0-0.1,0c-0.5-0.1-1.1-0.2-1.5-0.2c-0.6-0.1-1.3,0.1-1.8,0.2
		c-0.6,0.1-1.2,0.4-1.7,0.7c-0.5,0.3-1,0.7-1.5,1.1c-0.1,0.1-0.2,0.2-0.4,0.4c-0.3,0.4-0.8,1-1.1,1.5c-0.3,0.6-0.5,1.1-0.7,1.7
		c-0.2,0.6-0.2,1.4-0.3,2c0,0.2,0,0.4,0,0.6c0,0.7,0.1,1.3,0.2,2c0,0.2,0.1,0.4,0.2,0.6c0.2,0.7,0.5,1.3,1,1.8
		c0.4,0.6,0.9,1.1,1.5,1.4c0.6,0.4,1.3,0.6,2,0.6c0.7,0.2,1.4,0.1,2.2-0.1c0.4-0.2,0.9-0.4,1.3-0.5c0.2-0.1,0.4-0.3,0.6-0.4
		c0.9,0,1.7-0.3,2.5-0.7c0.5-0.3,1-0.7,1.4-1.1c0.8-0.9,1.2-1.6,1.6-2.7C104.8,342.5,104.7,341.3,104.5,340.1z"/>
	<path class="st1" d="M108.7,414c-0.1-0.4-0.2-0.7-0.3-1.1c-0.3-0.8-0.6-1.6-1-2.2c-0.3-0.4-0.6-0.7-0.8-1.1
		c-0.5-0.5-1.1-0.9-1.7-1.1c-0.4-0.2-0.9-0.4-1.4-0.4c-0.7-0.2-1.4-0.1-2.2,0.1c-0.7,0.3-1.4,0.5-2.1,0.9c-0.6,0.3-1.2,0.8-1.7,1.3
		c-0.9,0.8-1.4,1.9-1.8,3c-0.2,0.6-0.2,1.2-0.2,1.8c0,1.1,0.2,1.5,0.5,2.3c0.4,0.9,0.4,1,1.2,1.9c0.4,0.4,0.9,0.8,1.3,1
		c0.2,0.1,0.4,0.2,0.6,0.3c0.3,0.4,0.6,0.8,1.1,1.1c0.5,0.5,1.1,0.8,1.8,1c0.5,0.1,1,0.1,1.4,0.2c1,0,1.9-0.2,2.7-0.7
		c0.4-0.3,0.7-0.6,1.1-0.8c0.7-0.7,1.1-1.5,1.4-2.4c0.1-0.2,0.1-0.4,0.1-0.6c0.1-0.6,0.2-1.3,0.2-1.9
		C109,415.7,108.8,414.8,108.7,414z"/>
	<path class="st1" d="M455,248.5c-0.1-0.5-0.1-1.1-0.2-1.6c-0.2-0.7-0.5-1.3-1-1.8c-0.4-0.6-0.9-1.1-1.5-1.4
		c-0.4-0.2-0.9-0.4-1.3-0.5c-1-0.3-1.9-0.3-2.9,0c-0.1,0-0.1,0-0.2,0.1c0,0-0.1,0-0.1,0c-0.4,0.2-0.9,0.4-1.3,0.6
		c-0.1,0.1-0.3,0.1-0.4,0.2c-0.4,0.3-1,0.7-1.4,1.1c-0.4,0.4-0.8,0.9-1.1,1.4c-0.3,0.5-0.6,1.2-0.7,1.6c-0.1,0.1-0.1,0.3-0.1,0.4
		c0,0,0,0.1,0,0.1c-0.1,0.5-0.2,1-0.2,1.5c0,0.1,0,0.1,0,0.2c0,0.6,0.1,1.2,0.2,1.8c0.2,0.7,0.5,1.3,1,1.8c0.4,0.6,0.9,1.1,1.5,1.4
		c0.6,0.4,1.3,0.6,2,0.6c0.4,0.1,0.9,0.1,1.3,0.1c0.1,0,0.1,0,0.2,0l1.4-0.2c0.9-0.3,1.7-0.7,2.4-1.4c0.1-0.1,0.2-0.2,0.2-0.3
		c0.3-0.4,0.7-0.9,1-1.3c0.1-0.1,0.1-0.2,0.2-0.3c0.2-0.5,0.4-0.9,0.6-1.4c0-0.1,0-0.1,0.1-0.2c0-0.1,0.1-0.2,0.1-0.3
		c0.1-0.6,0.2-1.2,0.2-1.8c0-0.1,0-0.2,0-0.3C455,248.7,455,248.6,455,248.5z"/>
	<path class="st1" d="M63.7,242.4l-0.1-0.7c-0.2-0.7-0.5-1.3-1-1.8c-0.2-0.2-0.3-0.4-0.5-0.6c-0.1-0.1-0.1-0.2-0.2-0.3
		c-0.1-0.2-0.2-0.3-0.4-0.5c-0.3-0.3-0.5-0.6-0.8-1c-0.5-0.5-1.1-0.9-1.7-1.1c-0.6-0.3-1.3-0.5-2.1-0.5c-0.7,0-1.4,0.1-2.1,0.5
		c-0.7,0.2-1.2,0.6-1.7,1.1c-0.3,0.4-0.6,0.7-0.8,1.1c-0.2,0.4-0.4,0.8-0.5,1.2c-0.2,0.1-0.4,0.3-0.5,0.4c-0.3,0.4-0.6,0.7-0.8,1.1
		c-0.5,0.8-0.7,1.7-0.7,2.7c0.1,0.5,0.1,1,0.2,1.4c0.3,0.9,0.7,1.7,1.4,2.4c0.1,0.1,0.1,0.1,0.2,0.2c0.4,0.4,0.8,0.7,1.3,1
		c0.5,0.3,1.1,0.5,1.5,0.6c0.1,0,0.2,0.1,0.3,0.1c0.5,0.1,1.1,0.2,1.7,0.2c0.1,0,0.2,0,0.3,0c0,0,0.1,0,0.1,0c0.5-0.1,1-0.1,1.5-0.2
		c0.1,0,0.2,0,0.3-0.1c0.5-0.2,1-0.4,1.5-0.6c0.1,0,0.2-0.1,0.3-0.1c0,0,0.1,0,0.1-0.1c0.4-0.3,0.8-0.6,1.2-0.9
		c0.1-0.1,0.1-0.1,0.2-0.2c0.4-0.4,0.7-0.8,1-1.3c0.1-0.1,0.1-0.2,0.1-0.3c0.2-0.5,0.5-1,0.6-1.5c0,0,0-0.1,0-0.1
		C63.9,243.3,63.9,243.4,63.7,242.4z"/>
	<path class="st1" d="M187.5,118.1c0-0.1,0-0.2-0.1-0.3c-0.2-0.5-0.4-1-0.6-1.5c-0.3-0.6-0.8-1.1-1.2-1.6c-0.9-1-2.1-1.6-3.4-2.1
		c-0.2-0.1-0.4-0.1-0.6-0.2c-0.7-0.1-1.4-0.3-2.1-0.2c-0.7,0.1-1.5,0.1-2.2,0.4c-0.7,0.2-1.3,0.5-2,0.9c-0.9,0.5-1.8,1.2-2.5,1.9
		c-0.5,0.5-0.9,1.1-1.1,1.7c-0.3,0.6-0.5,1.3-0.5,2.1c0,0.7,0.1,1.4,0.5,2.1c0.2,0.7,0.6,1.2,1.1,1.7c0.9,0.8,2,1.4,3.2,1.5
		c0.4,0.4,0.7,0.7,1.2,1c0.3,0.2,0.5,0.2,0.8,0.4c0.2,0.1,0.5,0.3,0.8,0.3c0.3,0.1,0.6,0.1,0.9,0.1c0.3,0,0.6,0.1,1,0.1
		c0.6,0,1.2-0.1,1.8-0.2c0.1,0,0.2,0,0.2-0.1c0.5-0.2,1-0.4,1.5-0.6c1-0.5,2-1.5,2.6-2.5c0.3-0.5,0.5-1.1,0.7-1.7
		C187.8,120.2,187.7,119.3,187.5,118.1z"/>
	<path class="st1" d="M391.6,113.8c-0.1-0.4-0.4-1.1-0.7-1.6c-0.2-0.3-0.6-1-1.1-1.3c-0.4-0.4-0.9-0.7-1.4-1
		c-0.5-0.3-1.1-0.5-1.6-0.7c-0.1-0.1-0.3-0.1-0.4-0.1c-0.6-0.1-1.2-0.2-1.8-0.3c-0.3,0-0.6,0-0.9,0c-0.7,0-1.4,0.1-2.1,0.5
		c-0.7,0.2-1.2,0.6-1.7,1.1c-0.5,0.5-0.9,1.1-1.1,1.7c-0.3,0.6-0.5,1.3-0.5,2.1c0.1,0.5,0.1,1,0.2,1.4c0.2,0.8,0.6,1.5,1.2,2.1
		c0.1,0.3,0.3,0.7,0.5,1.2c0.2,0.5,0.6,0.9,0.9,1.2c1.1,1.1,2.6,1.7,4.1,1.7c1.7,0,3.4-0.7,4.6-2c0,0,0.1-0.1,0.1-0.1
		c0.2-0.3,0.7-0.8,0.9-1.1c0,0,0,0,0-0.1c0.3-0.5,0.5-1,0.6-1.5C391.9,116.2,391.9,114.8,391.6,113.8z"/>
	<path class="st1" d="M339.9,366.3c0,0,0-0.1,0-0.1c0,0,0,0,0,0c-0.1-0.2-0.4-1.1-0.6-1.3c0,0,0-0.1,0-0.1c-0.3-0.5-0.6-0.9-1-1.3
		c0,0,0,0-0.1,0c-0.1-0.1-0.9-0.7-1.1-0.8c0,0,0,0,0,0c0,0-0.1-0.1-0.1-0.1c-0.5-0.2-1-0.5-1.5-0.6c-0.3-0.1-0.6-0.1-0.8-0.1
		c-0.2,0-0.6-0.1-0.9-0.1c0,0-0.1,0-0.1,0c0,0,0,0-0.1,0c-0.3,0-1.2,0.2-1.4,0.2c0,0,0,0-0.1,0c-0.1,0-0.2,0-0.3,0.1
		c-0.3,0.1-1,0.4-1.3,0.6c0,0,0,0,0,0c0,0,0,0-0.1,0c0,0-0.1,0-0.1,0.1c-1,0.8-1.4,1-2.1,2.1c-0.3,0.4-0.4,1-0.6,1.4
		c0,0.1,0,0.1,0,0.2c-0.2,0.7-0.3,1.4-0.1,2.2c0,0.7,0.2,1.4,0.6,2c0.3,0.6,0.8,1.1,1.4,1.5c0.5,0.5,1.1,0.8,1.8,1
		c0.5,0.1,1,0.1,1.4,0.2c0.4,0,0.7-0.1,1-0.1c0.1,0,0.2,0,0.3,0.1c0.7,0.2,1.4,0.1,2.2-0.1c0.4-0.2,0.9-0.4,1.3-0.5
		c0.8-0.5,1.5-1.1,1.9-1.9c0.2-0.4,0.4-0.9,0.5-1.3C340.2,368.2,340.2,367.2,339.9,366.3z"/>
	<path class="st1" d="M241.3,365.4c-0.2-0.7-0.5-1.3-1-1.8c-0.4-0.6-0.9-1.1-1.5-1.4c-0.8-0.5-1.7-0.7-2.7-0.7
		c-0.8,0.1-1.6,0.1-2.4,0.4c-0.5,0.2-1,0.4-1.5,0.6c-0.1,0-0.1,0.1-0.2,0.1c-0.2,0.1-0.3,0.2-0.4,0.3c-0.1,0-0.1,0.1-0.2,0.1
		c-0.4,0.3-0.9,0.6-1.3,1c-0.1,0.1-0.2,0.2-0.4,0.3c-0.1,0.1-0.2,0.3-0.4,0.5c-0.3,0.2-0.5,0.5-0.7,0.8c-0.5,0.5-0.8,1.1-1,1.8
		c-0.1,0.5-0.1,1-0.2,1.4c0,0.8,0.2,1.6,0.6,2.3c0,0.1,0.1,0.2,0.1,0.2c0,0.1,0,0.1,0.1,0.2c0.3,0.4,0.6,0.7,0.8,1.1
		c0,0,0.1,0.1,0.1,0.1c0.3,0.3,0.6,0.6,1,0.8l1.3,0.5c0.5,0.1,1,0.2,1.5,0.2c0.1,0,0.1,0,0.2,0c0.1,0,0.1,0,0.2,0c0.1,0,0.2,0,0.3,0
		c0,0,0.1,0,0.1,0c0.5-0.1,1-0.1,1.5-0.2c0.2,0,0.4-0.1,0.5-0.1c0.5-0.2,1.2-0.4,1.7-0.8c0.5-0.3,1-0.7,1.5-1.1
		c0.5-0.4,0.8-1,1.2-1.5c0.3-0.5,0.6-1.2,0.8-1.7c0.1-0.2,0.1-0.4,0.2-0.5C241.5,367.4,241.5,366.4,241.3,365.4z"/>
	<path class="st1" d="M125.2,169.2c0-0.1,0-0.1,0-0.2c0-0.2-0.1-0.8-0.1-0.7c0-0.1-0.1-0.5-0.1-0.7c0,0,0,0,0-0.1
		c-0.1-0.3-0.2-0.6-0.3-0.8c-0.1-0.2-0.2-0.5-0.3-0.8c-0.3-0.4-0.6-0.9-0.9-1.2c-0.1-0.1-0.1-0.2-0.2-0.2c-0.4-0.3-0.8-0.6-1.1-0.9
		c0,0,0,0-0.1,0c0,0-0.1-0.1-0.2-0.1c-0.5-0.3-1-0.5-1.6-0.7c-0.1,0-0.1,0-0.2,0c-0.3,0-0.5-0.1-0.8-0.1c-0.2,0-0.5-0.1-0.8-0.1
		c0,0-0.1,0-0.1,0c0,0,0,0-0.1,0c0,0,0,0,0,0c-0.4,0-1.1,0.1-1.5,0.2c-0.1,0-0.1,0-0.1,0c0,0,0,0-0.1,0c-0.2,0.1-0.6,0.3-0.7,0.3
		c-0.1,0.1-0.5,0.2-0.7,0.3c0,0-0.1,0-0.1,0.1c0,0,0,0,0,0c-0.2,0.1-1,0.7-1.1,0.9c0,0,0,0-0.1,0.1c0,0,0,0-0.1,0.1c0,0,0,0,0,0
		c-0.2,0.3-0.6,0.8-0.9,1.1c0,0-0.1,0.1-0.1,0.1c0,0,0,0,0,0c-0.1,0.3-0.4,1-0.6,1.3c0,0,0,0,0,0.1c0,0,0,0,0,0.1c0,0,0,0,0,0
		c-0.1,0.4-0.2,1.1-0.2,1.5c0,0.1,0,0.1,0,0.2c0,0,0,0.1,0,0.1c0,0.2,0.1,0.6,0.1,0.7c0,0.2,0.1,0.5,0.1,0.8c0,0.1,0,0.1,0,0.2
		c0.2,0.5,0.4,1,0.6,1.4c0,0,0,0.1,0.1,0.1c0,0,0,0,0,0.1c0.3,0.4,0.6,0.8,0.9,1.1c0.1,0.1,0.2,0.2,0.2,0.3c0.4,0.3,0.8,0.7,1.2,0.9
		c0.1,0,0.1,0.1,0.2,0.1c0.5,0.2,0.9,0.4,1.4,0.6c0.1,0,0.1,0,0.2,0c0.3,0,1.2,0.2,1.4,0.2c0,0,0,0,0.1,0c0,0,0.1,0,0.1,0
		c0,0,0.1,0,0.1,0c0.2,0,0.6-0.1,0.7-0.1c0.2,0,0.5-0.1,0.8-0.1c0.1,0,0.1,0,0.2-0.1c0.1,0,1.1-0.4,1.5-0.6c0.6-0.3,1.1-0.8,1.5-1.4
		c0.2-0.3,0.4-0.6,0.6-0.9c0.4-0.5,0.7-1.1,0.8-1.7C125.1,170.2,125.2,169.7,125.2,169.2z"/>
	<path d="M69.8,392.2c-2.7,0.8-5,1.6-7.4,2.2c-0.8,0.2-1.8,0-2.6-0.1c0.1-0.9,0.1-1.8,0.4-2.6c1-2.3,2.1-4.4,3.3-6.9
		c-1.4-1.4-2.8-2.7-4.2-4.1c-0.8-0.8-1.7-1.6-2.2-2.6c-0.8-1.5-0.1-2.4,1.6-2.2c1.9,0.3,3.7,0.7,5.6,1.1c1.7,0.4,3,0,4-1.7
		c1.4-2.3,3.1-4.3,4.8-6.4c0.5-0.6,1.2-1.1,2.1-1.9c1.9,3.5,0.4,6.9,1.3,10.6c1.8,0,3.8-0.1,5.7,0c1.2,0.1,2.4,0.7,3.6,1
		c-0.6,1.1-1.1,2.3-1.8,3.2c-0.8,0.9-1.8,1.7-3,2.8c2.3,3.1,4.6,6.1,6.9,9.1c-0.2,0.2-0.3,0.4-0.5,0.6c-0.7-0.1-1.4-0.1-2.1-0.2
		c-2.4-0.5-4.8-1.1-7.2-1.7c-1.3-0.3-1.9,0.3-2.3,1.4c-0.5,1.3-1,2.7-1.7,3.9c-0.4,0.7-1.1,1.1-1.7,1.6c-0.5-0.7-1.2-1.4-1.5-2.2
		C70.4,395.7,70.2,394.1,69.8,392.2z"/>
	<path d="M409.2,251.9c-2.7,0.8-5,1.6-7.4,2.2c-0.8,0.2-1.8,0-2.6-0.1c0.1-0.9,0.1-1.8,0.4-2.6c1-2.3,2.1-4.4,3.3-6.9
		c-1.4-1.4-2.8-2.7-4.2-4.1c-0.8-0.8-1.7-1.6-2.2-2.6c-0.8-1.5-0.1-2.4,1.6-2.2c1.9,0.3,3.7,0.7,5.6,1.1c1.7,0.4,3,0,4-1.7
		c1.4-2.3,3.1-4.3,4.8-6.4c0.5-0.6,1.2-1.1,2.1-1.9c1.9,3.5,0.4,6.9,1.3,10.6c1.8,0,3.8-0.1,5.7,0c1.2,0.1,2.4,0.7,3.6,1
		c-0.6,1.1-1.1,2.3-1.8,3.2c-0.8,0.9-1.8,1.7-3,2.8c2.3,3.1,4.6,6.1,6.9,9.1c-0.2,0.2-0.3,0.4-0.5,0.6c-0.7-0.1-1.4-0.1-2.1-0.2
		c-2.4-0.5-4.8-1.1-7.2-1.7c-1.3-0.3-1.9,0.3-2.3,1.4c-0.5,1.3-1,2.7-1.7,3.9c-0.4,0.7-1.1,1.1-1.7,1.6c-0.5-0.7-1.2-1.4-1.5-2.2
		C409.8,255.4,409.5,253.7,409.2,251.9z"/>
	<path d="M224.1,129.2c-2.2,1.7-4.1,3.3-6.1,4.7c-0.7,0.5-1.6,0.6-2.5,0.9c-0.2-0.9-0.6-1.7-0.6-2.6c0.1-2.5,0.4-4.9,0.6-7.6
		c-1.8-0.8-3.6-1.5-5.4-2.4c-1-0.5-2.1-0.9-3-1.6c-1.3-1.1-1-2.2,0.7-2.6c1.8-0.4,3.7-0.7,5.6-1c1.8-0.3,2.8-1,3.2-3
		c0.5-2.6,1.4-5.1,2.2-7.7c0.2-0.8,0.7-1.5,1.3-2.6c3,2.6,2.9,6.3,5.1,9.4c1.7-0.7,3.5-1.5,5.4-2c1.2-0.3,2.5-0.2,3.7-0.3
		c-0.2,1.2-0.2,2.5-0.6,3.7c-0.4,1.2-1.1,2.2-1.8,3.7c3.3,2,6.5,4,9.7,6c-0.1,0.2-0.2,0.5-0.2,0.7c-0.7,0.2-1.4,0.4-2,0.5
		c-2.4,0.4-4.9,0.7-7.3,1c-1.4,0.2-1.7,0.9-1.7,2.2c0,1.4,0,2.9-0.2,4.3c-0.1,0.7-0.7,1.4-1,2.1c-0.7-0.5-1.6-0.8-2.2-1.5
		C225.9,132.2,225.1,130.7,224.1,129.2z"/>
	<g>
		<path d="M363.1,156.3c2.6-1.1,3.1-0.9,4-2.6c0.9-1.1,0.4-1.5,0.2-3.3c0-1.5-0.7-2.4-2-3.5c-1.8-1.3-2.6-0.9-5.1-0.2
			c-2.2,1.5-3.3,2.9-2.4,6.2C358.3,155.4,359.8,155.8,363.1,156.3z"/>
		<path d="M442.8,171.4c-6.2,17.8-30.4,44.9-40.9,28.2c-2.9-5.3-0.2-16.9,2.4-24c5.5-2.6,9.9-6.2,13.9-10.1c2-2.2,3.3-4.6,4.6-7.3
			c1.1-2.6,1.3-5.3,0.7-7.9c-0.7-3.5-3.3-7-8.6-6.6c-3.1,0.4-5.5,1.8-7.7,3.7c-4,3.3-7.3,7-9.9,11.7c-3.5,6.3-5.8,12.3-6.8,18.2
			c-5,16.2-9.2,22.2-18,32.6c-6.6,7.3-13.9,2.6-13.9-6.4c0.4-7.3,0.7-9.5,2-16.9c0.4-1.5,0.4-2.9,0.7-4c0,0,0.7-4.2,1.3-6.4
			c0-1.5,1.3-4.6,0-6.8c-2.2-3.3-5.1-3.7-7.9-1.8c-1,0.7-1.8,1.4-2.3,2.1c-0.6,0.1-1.1,0.6-1.2,1.4c-0.1,0.4-0.3,0.8-0.4,1.2
			c-1,1.9-1.8,5-2.5,8.7c-1.6,6.1-2.9,12-5.9,20.8c-1.5,4.8-3.3,9.7-5.9,14.1c-3.5,6.2-7.7,11.4-14.7,12.5c-4.4,0.4-6.8-1.5-8.8-4.4
			c-0.7-0.9-1.3-1.8-2-2.2c-2.6-4-4.8-7.9-6.6-12.3c-3.7-8.6-7.7-17.2-12.5-25.3v-0.7c0.9-0.4,2-1.1,3.3-1.5
			c5.7-2.6,11.7-5.1,17.6-7.7c2-1.1,4.2-2.4,6.2-3.7c0.9-0.4,1.5-1.5,2.2-2.4c1.3-2.6-0.4-6.2-3.5-5.9c-1.1-0.2-2,0.2-2.9,0.4
			c-3.3,1.3-6.4,2.4-9.5,4c-3.5,1.5-7.3,3.3-10.8,5.1c-1.1,0.4-2.4,1.1-3.7,0.4c0-1.5,0-2.9,0.2-4.4c1.5-1.3,3.3-2.4,5.1-3.7
			c6.8-5.1,13-10.8,18.5-17.4c3.7-4.8,7.9-9.9,11.2-15.4c3.5-5.9,7-12.3,9.5-18.7c3.5-9.7,5.5-19.1,5.5-29.3
			c0-5.1-1.3-10.1-3.7-14.7c-3.5-6.2-10.6-10.1-19.4-6.2c-3.7,1.5-6.8,3.5-9.9,6.4c-4.6,4.4-8.1,9.2-11.4,14.7
			c-4.6,8.4-7.9,17.2-10.6,26.2c-4.2,15-6.8,30.4-8.1,45.8c-0.4,4.4-0.4,8.8-0.9,13.4l0,2.1c-5.5,3.5-16.4,8.8-26.4,9.8
			c-0.7,0-1.5-0.2-2.4-0.2c-0.2-1.3-0.2-2.4-0.4-3.5c-0.7-3.7-1.1-7.5-2-11.2c-0.4-1.8-1.3-3.3-2.4-4.6c-0.9-1.1-2.4-1.5-3.7-2.2
			l-0.2-0.9c-1.3-3.1-3.3-3.7-6.2-2.6c-1.5,0.9-2.9,2-4,3.5c-1.3,1.8-2.6,3.5-3.7,5.5c-1.1,2-2.1,4-3,6.1
			c-5.3,3.5-16.6,9.2-26.9,10.2c-0.7,0-1.5-0.2-2.4-0.2c-0.2-1.3-0.2-2.4-0.4-3.5c-0.7-3.7-1.1-7.5-2-11.2c-0.4-1.8-1.3-3.3-2.4-4.6
			c-0.9-1.1-2.4-1.5-3.7-2.2l-0.2-0.9c-1.3-3.1-3.3-3.7-6.2-2.6c-1.5,0.9-2.9,2-4,3.5c-1.3,1.8-2.6,3.5-3.7,5.5
			c-2.9,5.3-5,10.8-6.4,16.5c-1.2,2.1-2.3,4.1-3.5,6.2c-4.3,7.8-8.9,15.9-14.1,23.4c-5.4,7.7-11.5,14.8-19,20.6
			c-5.1,3.8-10.5,6.9-16.7,8.2c-6.7,1.7-12.8,0.1-17.7-5.3c-3.1-3.1-5.4-6.8-7.1-10.7c-4.9-10.7-6.7-22.4-6.2-34
			c0-6.4,0.8-12.7,1.9-19.1c1.8-9.1,4.4-17.8,7.5-26.3c0.3-0.9,6.2-15,7.8-18.4c6.5-13.2,14.5-25.2,24.6-35.9
			c3.6-3.7,7.4-7.4,11.8-10.4c4.2-2.6,8.3-4.7,15-2.6c4.6,3.4,6.2,8,6.3,13.5l-0.1,1.8c-0.3,3.5,5,7.2,6-5.7c0-3.3-0.8-6.5-2.2-9.2
			c-2.7-5.5-6.6-9.1-12.4-10.4c-4.3-1-8.5-0.9-12.8,0.3c-7.9,2.5-14.4,6.8-20.1,12.4c-8.8,8.4-15.9,18-22.2,28.3
			c-4.3,7.4-8.2,15-11.7,23.2l-2.8,7.3c-4.1,10.9-7.2,22-9.2,33.3c-1.6,9.4-2.1,18.6-1,28.2c1.8,13.6,7.1,25.5,16.3,35.7
			c3.3,3.6,7.2,6.3,11.5,8.4c3,1.5,6,2.4,9.3,2.5c3.3,0,6.6-0.4,9.8-1.5c7.9-2.7,14.9-7.3,21.1-13c6.7-6.3,12.1-13.6,16.9-21.4
			c3.9-6.7,7.8-13.5,11.7-20.3c-0.7,6,0.1,11.9,1.7,17.8c1.3,4.8,4.2,9,8.4,11.9c5.1,3.7,8.6,3.3,13.4-1.5c0.9-0.9,1.3-2,1.8-2.9
			c1.1-2.6,2.4-5.3,3.1-8.1c2.4-9.5,3.1-15.4,3.1-21.3c7-0.2,18.9-5.2,26.6-9.7c-1.3,4-2.2,8.1-2.9,12.4c-1.1,6.6-0.2,13,1.5,19.4
			c1.3,4.8,4.2,9,8.4,11.9c5.1,3.7,8.6,3.3,13.4-1.5c0.9-0.9,1.3-2,1.8-2.9c1.1-2.6,2.4-5.3,3.1-8.1c2.4-9.5,3.1-15.4,3.1-21.3
			c7.4-0.2,20.5-5.9,28.1-10.6l-0.2,23.8c-0.2,7,0.9,13.6,1.5,20.5c0.2,1.8,0.9,3.5,1.5,5.3c0.2,0.7,1.1,1.5,1.5,2.2
			c2.4,2.2,5.3,1.8,7-0.9l2-4.8c0.7-2.9,1.3-5.7,2.2-8.8c0.9,1.1,1.1,2,1.8,2.9c1.8,2.9,3.5,5.9,5.5,9c2.2,3.5,5.3,6.4,8.8,8.6
			c6.4,4,13,4.6,19.4,0.7c2.4-1.5,4.6-3.3,6.6-5.5c5.5-6.2,9.2-13.2,11.7-20.7c0.4-1.1,0.7-2.2,1-3.2c0,0.3,0,0.6,0.1,0.8
			c3.7,13.4,11.9,18.9,21.3,14.5c8.5-2.8,16.3-15.5,21.7-29.9c0.3,3.2,1,6.4,2.1,9.7c15.4,28.2,48.6-5.9,54.8-26.4
			C448.3,168.6,443.9,167.9,442.8,171.4z M406.5,169c2-4.2,3.7-8.6,5.9-12.5c1.1-2.6,2.6-5.1,5.5-6.6c1.5,0,2.2,0.9,2.6,2
			c0.4,2,0.4,4-0.4,5.7c-0.7,1.3-1.3,2.4-2.2,3.5c-3.1,4-7,6.8-11.4,9.7V169z M294.1,129.4c1.5-10.6,3.5-20.7,7-30.4
			c2.4-6.8,5.3-13.4,9.5-19.4c1.8-2.9,4.2-5.5,6.8-7.9c3.3-2.6,4.8-3.3,9.9-3.3c4.6,2.2,6.4,6.6,7.5,11.4c1.1,5.9,0.4,11.9-0.4,17.6
			c-1.8,10.1-5.7,19.4-10.8,28.2c-3.7,7.3-8.6,13.6-13.9,20c-4.2,4.8-9,9.5-14.1,13.6c-1.1,1.1-2.6,2.2-4.2,2.9
			c-0.4-0.7-0.7-1.1-0.7-1.5C291.6,150.1,292.3,139.8,294.1,129.4z M182.7,168.4c0.2-1.8,0.7-3.3,2.4-4.4c0.4,0.9,1.1,1.5,1.5,2.4
			c1.3,4,1.8,8.4,2.2,12.8c-2.6-0.9-3.7-3.1-4.8-4.8C183.2,172.3,182.5,170.3,182.7,168.4z M189.1,195.2c-0.9,5.1-2,10.1-3.7,14.7
			c-0.7,1.3-1.3,2.6-2.2,3.7c-0.4,0.9-1.3,1.3-2.9,1.1c-0.2-0.4-0.4-0.9-0.9-1.3c-6.6-12.3-6.6-23.1-1.3-37c0-0.2,0.2-0.4,0.4-0.7
			c1.3,0,1.3,1.3,1.8,2c0.7,0.7,1.1,1.5,1.8,2.2c0.7,0.7,1.3,1.5,2,2c0.9,0.7,1.5,1.1,2.4,1.8l2.6,1.3
			C189.5,188.6,189.5,191.9,189.1,195.2z M237.7,168.4c0.2-1.8,0.7-3.3,2.4-4.4c0.4,0.9,1.1,1.5,1.5,2.4c1.3,4,1.8,8.4,2.2,12.8
			c-2.6-0.9-3.7-3.1-4.8-4.8C238.2,172.3,237.5,170.3,237.7,168.4z M244.1,195.2c-0.9,5.1-2,10.1-3.7,14.7c-0.7,1.3-1.3,2.6-2.2,3.7
			c-0.4,0.9-1.3,1.3-2.9,1.1c-0.2-0.4-0.4-0.9-0.9-1.3c-6.6-12.3-6.6-23.1-1.3-37c0-0.2,0.2-0.4,0.4-0.7c1.3,0,1.3,1.3,1.8,2
			c0.7,0.7,1.1,1.5,1.8,2.2c0.7,0.7,1.3,1.5,2,2c0.9,0.7,1.5,1.1,2.4,1.8l2.6,1.3C244.5,188.6,244.5,191.9,244.1,195.2z"/>
	</g>
</g>
</svg>
